<svg
  width="28"
  height="32"
  viewBox="0 0 28 32"
  fill="transparent"
  xmlns="http://www.w3.org/2000/svg">
  <path
    fill="#264DE4"
    d="M13.9829 32L2.54822 28.801L0 0H28L25.4492 28.7967L13.9829 32Z"
  />
  <path
    fill="#2965F1"
    d="M23.2653 26.963L25.4451 2.35485H14V29.5514L23.2653 26.963Z"
  />
  <path
    fill="#EBEBEB"
    d="M5.84168 13.0368L6.15581 16.5692H14V13.0368H5.84168ZM5.21037 5.88729L5.52899 9.41963H14V5.88729H5.21037ZM14 22.2107L13.9847 22.2147L10.0808 21.1525L9.83123 18.3353H6.31243L6.80349 23.8817L13.9839 25.8902L14 25.8858V22.2107Z"
  />
  <path
    fill="white"
    d="M22.1359 13.0368L22.7686 5.88729H13.9879V9.41963H18.9271L18.6082 13.0368H13.9879V16.5692H18.3043L17.8973 21.1504L13.9879 22.2137V25.8886L21.174 23.8817L22.0505 13.9853L22.1359 13.0368Z"
  />
</svg>
