<svg
  width="32"
  height="32"
  viewBox="0 0 32 32"
  fill="transparent"
  xmlns="http://www.w3.org/2000/svg">
  <path
    fill="url(#paint0_linear_12_5)"
    d="M15.9729 23.82C23.0525 33.471 29.9809 21.1262 29.9706 13.7025C29.9587 4.9255 21.0625 0.0199967 15.9671 0.0199967C7.78862 0.0198717 0 6.779 0 16.027C0 26.3062 8.92812 32 15.9671 32C14.3742 31.7706 9.06588 30.6332 8.99463 18.4066C8.9465 10.1374 11.6921 6.8335 15.9556 8.28687C16.0511 8.32225 20.6584 10.1397 20.6584 16.0769C20.6584 21.9889 15.9729 23.82 15.9729 23.82Z"
  />
  <path
    fill="url(#paint1_linear_12_5)"
    d="M15.9646 8.28012C11.2866 6.66775 5.556 10.5234 5.556 18.2459C5.556 30.8555 14.9001 32 16.0329 32C24.2114 32 32 25.2407 32 15.9929C32 5.71362 23.0719 0.0198717 16.0329 0.0198717C17.9825 -0.250128 26.541 2.12987 26.541 13.8271C26.541 21.4554 20.1505 25.6081 15.994 23.8339C15.8985 23.7985 11.2911 21.981 11.2911 16.0439C11.2911 10.1317 15.9646 8.28012 15.9646 8.28012Z"
  />
  <defs>
    <linearGradient
      id="paint0_linear_12_5"
      x1="5.05312"
      y1="4.71588"
      x2="29.1228"
      y2="27.273"
      gradientUnits="userSpaceOnUse">
      <stop />
      <stop
        offset="1"
        stop-color="white"
      />
    </linearGradient>
    <linearGradient
      id="paint1_linear_12_5"
      x1="27.276"
      y1="27.2758"
      x2="1.40369"
      y2="9.60786"
      gradientUnits="userSpaceOnUse">
      <stop />
      <stop
        offset="1"
        stop-color="white"
      />
    </linearGradient>
  </defs>
</svg>
