<svg
  width="28"
  height="32"
  viewBox="0 0 28 32"
  fill="transparent"
  xmlns="http://www.w3.org/2000/svg">
  <path
    fill="white"
    d="M14 0L28 7.9987V24.0013L14 32L0 24.0013V7.9987L14 0Z"
  />
  <path
    fill="#8ED6FB"
    d="M25.5011 23.4464L14.465 29.7588V24.8497L21.3434 21.0239L25.5011 23.4464ZM26.2566 22.7581V9.56751L22.2204 11.9206V20.4048L26.2566 22.7581ZM2.45656 23.4463L13.4928 29.7536V24.8444L6.61434 21.0239L2.45656 23.4463ZM1.70111 22.7581V9.56751L5.73737 11.9206V20.4048L1.70111 22.7581ZM2.17142 8.71379L13.4928 2.24644V6.99562L6.2393 11.0242L6.18111 11.0562L2.17142 8.71379ZM25.7811 8.71379L14.465 2.24633V6.99551L21.7132 11.0294L21.7713 11.0614L25.7811 8.71379Z"
  />
  <path
    fill="#1C78C0"
    d="M13.4928 23.7292L6.70939 19.9566V12.4916L13.4928 16.4456V23.7292ZM14.465 23.7292L21.2484 19.962V12.4916L14.465 16.4456V23.7292ZM7.16373 11.6271L13.9789 7.84393L20.7886 11.6271L13.9789 15.5972L7.16373 11.6271Z"
  />
</svg>
