<svg
  width="35"
  height="32"
  viewBox="0 0 35 32"
  fill="transparent"
  xmlns="http://www.w3.org/2000/svg">
  <path
    fill="#E24329"
    d="M17.5001 32L23.9446 12.3142H11.0555L17.5001 32Z"
  />
  <path
    fill="#FC6D26"
    d="M17.5001 32L11.0555 12.3142L2.02388 12.3141L17.5001 32Z"
  />
  <path
    fill="#FCA326"
    d="M2.02388 12.3141L0.0653146 18.2965C-0.0217598 18.5625 -0.0217718 18.849 0.0652803 19.1149C0.152332 19.3809 0.32198 19.6127 0.549909 19.7771L17.5001 32L2.02388 12.3141Z"
  />
  <path
    fill="#E24329"
    d="M2.02388 12.3141L11.0555 12.3142L7.17424 0.457534C6.97449 -0.152579 6.1049 -0.152444 5.90529 0.457534L2.02388 12.3141Z"
  />
  <path
    fill="#FC6D26"
    d="M17.5001 32L23.9446 12.3142L32.9764 12.3141L17.5001 32Z"
  />
  <path
    fill="#FCA326"
    d="M32.9764 12.3141L34.9347 18.2965C35.0218 18.5625 35.0218 18.849 34.9347 19.115C34.8476 19.3809 34.6779 19.6127 34.45 19.7771L17.5001 32L32.9764 12.3141Z"
  />
  <path
    fill="#E24329"
    d="M32.9764 12.3141L23.9446 12.3142L27.826 0.457534C28.0257 -0.152579 28.8953 -0.152444 29.095 0.457534L32.9764 12.3141Z"
  />
</svg>
