<svg
  width="28"
  height="32"
  viewBox="0 0 28 32"
  fill="transparent"
  xmlns="http://www.w3.org/2000/svg">
  <path
    fill="#E44D26"
    d="M28 0L25.4492 28.7967L13.9829 32L2.54822 28.801L0 0H28Z"
  />
  <path
    fill="#F16529"
    d="M14 29.5514L23.2653 26.963L25.4451 2.35484H14V29.5514Z"
  />
  <path
    fill="#EBEBEB"
    d="M9.0412 9.41962H14V5.88729H5.21037L6.15581 16.5692H14V13.0368H9.36158L9.0412 9.41962ZM9.83123 18.3353H6.31243L6.80349 23.8817L13.9839 25.8902L14 25.8858V22.2107L13.9847 22.2147L10.0808 21.1525L9.83123 18.3353Z"
  />
  <path
    fill="white"
    d="M13.9879 16.5692H18.3043L17.8973 21.1504L13.9879 22.2137V25.8886L21.174 23.8817L22.0505 13.9853L22.1359 13.0368H13.9879V16.5692ZM13.9879 9.41962H22.4549L22.7686 5.88729H13.9879V9.41962Z"
  />
</svg>
