<svg xmlns="http://www.w3.org/2000/svg" width="40" height="40" fill="transparent">
  <defs>
    <linearGradient id="A" x1="12.959%" x2="79.639%" y1="12.039%" y2="78.201%">
      <stop offset="0%" stop-color="#387eb8" />
      <stop offset="100%" stop-color="#366994" />
    </linearGradient>
    <linearGradient id="B" x1="19.128%" x2="90.742%" y1="20.579%" y2="88.429%">
      <stop offset="0%" stop-color="#ffe052" />
      <stop offset="100%" stop-color="#ffc331" />
    </linearGradient>
  </defs>
  <path fill="url(#A)"
    d="M 19.885 2.01 c -9.136 0 -8.566 3.981 -8.566 3.981 l 0.01 4.125 h 8.718 v 1.238 H 7.867 S 2.02 10.689 2.02 19.952 s 5.103 8.935 5.103 8.935 h 3.045 v -4.299 s -0.164 -5.128 5.021 -5.128 h 8.647 s 4.858 0.079 4.858 -4.718 V 6.811 S 29.433 2.01 19.885 2.01 z M 15.078 4.784 a 1.575 1.567 90 1 1 0 3.152 a 1.575 1.567 90 1 1 0 -3.152 z" />
  <path fill="url(#B)"
    d="M 20.145 37.988 c 9.136 0 8.566 -3.981 8.566 -3.981 l -0.01 -4.125 H 19.981 v -1.238 h 12.181 s 5.846 0.666 5.846 -8.598 s -5.103 -8.935 -5.103 -8.935 h -3.045 v 4.299 s 0.164 5.128 -5.021 5.128 h -8.647 s -4.858 -0.079 -4.858 4.719 v 7.932 s -0.738 4.8 8.81 4.8 z m 4.807 -2.774 a 1.575 1.567 90 1 1 0 -3.152 a 1.575 1.567 90 1 1 0 3.152 z" />
</svg>